<svg viewBox="0 0 90 18.28" width="50" height="18.28" xmlns="http://www.w3.org/2000/svg">
  <path fill="#ffffff" d="M24.79 14.52H4.88c-.38 0-1.25 0-1.3-1V4.71c.05-1 .92-1 1.3-1h19.94a1.79 1.79 0 000-3.57H4.86A4.56
   4.56 0 000 4.69v8.84a4.86 4.86 0 001.34 3.22 4.79 4.79 0 003.52 1.33h19.91a1.79 1.79 0 000-3.57zM35.68 7.33a1.77 1.77 
   0 00-1.78 1.81 1.75 1.75 0 001.78 1.75h13.86a6.57 6.57 0 004.33-1.71 5.19 5.19 0 001.48-3.79 4.94 4.94 0 00-1.52-3.76A6.26 
   6.26 0 0049.41.18H33.23a4.56 4.56 0 00-4.86 4.55v11.81a1.79 1.79 0 003.57 0V4.69c0-1 .91-1 1.29-1h16.43a1.83 1.83 0 110 
   3.65h-14zM86.44 1.78V16.5a1.78 1.78 0 103.56 0V1.78a1.78 1.78 0 10-3.56 0zM78.51 7.33a1.82 1.82 0 001.8-1.83 1.79 1.79 0 
   00-1.8-1.8H62c-.37 0-1.25 0-1.29 1v11.76a1.79 1.79 0 01-3.57 0V4.76A4.58 4.58 0 0162 .14h16.29a6.33 6.33 0 014.41 1.47 5 5 
   0 011.51 3.77 5.22 5.22 0 01-1.48 3.81 6.39 6.39 0 01-4.25 1.64H68.3a1.84 1.84 0 000 3.68h13.89a1.77 1.77 0 110 3.54H68.63a6.76
    6.76 0 01-4.4-1.49 5.3 5.3 0 01-1.56-4 5.06 5.06 0 011.69-3.79 6.44 6.44 0 014.28-1.43zM23.43 7.3H7.33a1.79 1.79 0 000
     3.57h16.1a1.79 1.79 0 000-3.57z"/>
</svg>