<?xml version="1.0" encoding="UTF-8"?>
<svg width="144px" height="59px" viewBox="0 0 144 59" version="1.1" xmlns="http://www.w3.org/2000/svg" xmlns:xlink="http://www.w3.org/1999/xlink">
    <!-- Generator: Sketch 46.2 (44496) - http://www.bohemiancoding.com/sketch -->
    <title>Page 1</title>
    <desc>Created with Sketch.</desc>
    <defs>
        <path d="M4.65785986,40.3189002 C7.21585986,55.5009002 41.4168599,61.6079002 79.4818599,55.1929002 C88.9858599,53.5919002 95.9238599,51.8039002 95.9238599,51.8039002 C95.9238599,51.8039002 87.1858599,54.2299002 76.5408599,56.0239002 C37.5288599,62.5969002 2.62385986,56.9999002 0.144859857,42.2879002 C-1.11414014,34.8149002 5.90985986,26.6859002 18.2368599,19.6339002 C8.70485986,26.1849002 3.50685986,33.4869002 4.65785986,40.3189002 Z M73.3530599,48.4212002 L79.4740599,48.4212002 L79.4740599,28.0972002 L73.3530599,28.0972002 L73.3530599,48.4212002 Z M70.9103599,48.4206002 L64.2643599,48.4206002 L63.3713599,44.6796002 L57.3063599,44.6796002 L56.3433599,48.4206002 L49.7263599,48.4206002 L56.7263599,28.0966002 L64.3213599,28.0966002 L70.9103599,48.4206002 Z M120.85596,32.8874002 L111.42396,32.8874002 L111.42396,35.8494002 L120.85596,35.8494002 L120.85596,40.6394002 L111.42396,40.6394002 L111.42396,43.6304002 L120.85596,43.6304002 L120.85596,48.4204002 L105.26496,48.4204002 L105.26496,28.0974002 L120.85596,28.0974002 L120.85596,32.8874002 Z M27.7412599,48.4204002 L22.3712599,48.4204002 L22.3712599,28.0964002 L31.5382599,28.0964002 L34.3302599,39.1374002 C34.3952599,39.3644002 34.4832599,39.8244002 34.5922599,40.5194002 C34.7012599,41.2134002 34.7692599,41.7504002 34.7972599,42.1284002 L34.8822599,42.1284002 C34.9862599,41.2684002 35.1512599,40.2524002 35.3782599,39.0814002 L37.9852599,28.0964002 L47.0122599,28.0964002 L47.0122599,48.4204002 L40.9752599,48.4204002 L40.9752599,37.2804002 C40.9752599,36.2324002 41.0082599,35.0794002 41.0752599,33.8224002 L41.1172599,32.8874002 L40.9472599,32.8874002 C40.6442599,34.4834002 40.4132599,35.5894002 40.2532599,36.2034002 L37.2632599,48.4204002 L31.5102599,48.4204002 L28.3792599,36.3454002 C28.2932599,36.0434002 28.0712599,34.8904002 27.7132599,32.8874002 L27.5422599,32.8874002 C27.6752599,36.0624002 27.7412599,38.0464002 27.7412599,38.8394002 L27.7412599,48.4204002 Z M88.4623599,48.4204002 L82.7943599,48.4204002 L82.7943599,28.0964002 L88.5753599,28.0964002 L95.4483599,37.4224002 C95.5333599,37.5454002 95.6373599,37.6914002 95.7593599,37.8614002 C95.8823599,38.0314002 96.0053599,38.2074002 96.1283599,38.3864002 C96.2503599,38.5664002 96.3663599,38.7404002 96.4753599,38.9104002 C96.5833599,39.0814002 96.6663599,39.2324002 96.7233599,39.3644002 L96.7793599,39.3644002 C96.7233599,38.9484002 96.6953599,38.2304002 96.6953599,37.2104002 L96.6953599,28.0964002 L102.36196,28.0964002 L102.36196,48.4204002 L96.9923599,48.4204002 L89.8223599,38.6134002 C89.2563599,37.8384002 88.7933599,37.1394002 88.4333599,36.5154002 L88.3773599,36.5154002 C88.4333599,37.5174002 88.4623599,38.6414002 88.4623599,39.8884002 L88.4623599,48.4204002 Z M60.4103599,32.5186002 L60.2683599,32.5186002 C60.2493599,32.7456002 60.1833599,33.1196002 60.0703599,33.6386002 C59.9563599,34.1586002 59.3853599,36.3886002 58.3553599,40.3286002 L62.2383599,40.3286002 L60.8213599,34.8006002 C60.6223599,33.9886002 60.4853599,33.2276002 60.4103599,32.5186002 Z M139.31396,19.2510002 C140.46496,26.0830002 135.26696,33.3850002 125.73496,39.9360002 C138.06096,32.8840002 145.08596,24.7550002 143.82696,17.2820002 C141.34696,2.57000016 107.71196,-4.02799984 68.7001599,2.54500016 C58.0551599,4.33900016 55.8431599,5.31300016 55.8431599,5.31300016 C55.8431599,5.31300016 60.5161599,4.30500016 65.7591599,3.37600016 C103.76796,-3.36599984 136.75496,4.06900016 139.31396,19.2510002 Z M118.27196,12.0552002 L120.85596,12.0552002 L116.54896,23.1902002 C115.68896,25.4042002 114.72496,26.2242002 112.98196,26.2242002 C111.95596,26.2242002 111.17696,25.9782002 110.41796,25.5682002 L111.25896,23.7232002 C111.70996,23.9692002 112.20196,24.1332002 112.71496,24.1332002 C113.41196,24.1332002 113.84296,23.8262002 114.25296,22.9032002 L109.74196,12.0552002 L112.40796,12.0552002 L115.46296,20.0932002 L118.27196,12.0552002 Z M55.9986599,17.5303002 L55.9986599,17.4893002 C55.9986599,14.4133002 58.3776599,11.8293002 61.6376599,11.8293002 C63.6676599,11.8293002 64.9386599,12.5883002 65.9646599,13.6963002 L64.4056599,15.3563002 C63.6466599,14.5563002 62.8476599,14.0033002 61.6176599,14.0033002 C59.8126599,14.0033002 58.4796599,15.5613002 58.4796599,17.4483002 L58.4796599,17.4893002 C58.4796599,19.4173002 59.8126599,20.9543002 61.7196599,20.9543002 C62.8886599,20.9543002 63.7496599,20.4213002 64.5286599,19.6213002 L66.0256599,21.0983002 C64.9596599,22.2873002 63.7086599,23.1283002 61.5966599,23.1283002 C58.3776599,23.1283002 55.9986599,20.6063002 55.9986599,17.5303002 Z M98.5870599,17.5303002 L98.5870599,17.4893002 C98.5870599,14.4133002 100.96596,11.8293002 104.22596,11.8293002 C106.25596,11.8293002 107.52696,12.5883002 108.55296,13.6963002 L106.99396,15.3563002 C106.23496,14.5563002 105.43596,14.0033002 104.20596,14.0033002 C102.40096,14.0033002 101.06796,15.5613002 101.06796,17.4483002 L101.06796,17.4893002 C101.06796,19.4173002 102.40096,20.9543002 104.30796,20.9543002 C105.47696,20.9543002 106.33796,20.4213002 107.11696,19.6213002 L108.61396,21.0983002 C107.54796,22.2873002 106.29696,23.1283002 104.18496,23.1283002 C100.96596,23.1283002 98.5870599,20.6063002 98.5870599,17.5303002 Z M22.3703599,17.5100002 L22.3703599,17.4690002 C22.3703599,14.3730002 24.5653599,11.8300002 27.6613599,11.8300002 C31.1063599,11.8300002 32.8493599,14.5360002 32.8493599,17.6530002 C32.8493599,17.8790002 32.8283599,18.1050002 32.8083599,18.3510002 L24.8523599,18.3510002 C25.1183599,20.1140002 26.3693599,21.0980002 27.9693599,21.0980002 C29.1793599,21.0980002 30.0403599,20.6470002 30.9013599,19.8060002 L32.3573599,21.0980002 C31.3313599,22.3290002 29.9173599,23.1280002 27.9283599,23.1280002 C24.7903599,23.1280002 22.3703599,20.8520002 22.3703599,17.5100002 Z M73.5300599,17.5100002 L73.5300599,17.4690002 C73.5300599,14.3730002 75.7250599,11.8300002 78.8210599,11.8300002 C82.2660599,11.8300002 84.0090599,14.5360002 84.0090599,17.6530002 C84.0090599,17.8790002 83.9880599,18.1050002 83.9680599,18.3510002 L76.0110599,18.3510002 C76.2780599,20.1140002 77.5290599,21.0980002 79.1290599,21.0980002 C80.3380599,21.0980002 81.1990599,20.6470002 82.0610599,19.8060002 L83.5170599,21.0980002 C82.4910599,22.3290002 81.0760599,23.1280002 79.0880599,23.1280002 C75.9500599,23.1280002 73.5300599,20.8520002 73.5300599,17.5100002 Z M35.8832599,12.1164002 L35.8832599,11.3174002 C35.8832599,10.1274002 36.1902599,9.22540016 36.7652599,8.65140016 C37.3392599,8.07740016 38.1392599,7.79040016 39.2052599,7.79040016 C40.0662599,7.79040016 40.6612599,7.91340016 41.2142599,8.07740016 L41.2142599,10.1694002 C40.7232599,10.0044002 40.2922599,9.90240016 39.7592599,9.90240016 C38.8152599,9.90240016 38.3232599,10.4144002 38.3232599,11.5424002 L38.3232599,12.1374002 L43.5932599,12.1164002 L43.5932599,11.3174002 C43.5932599,10.1274002 43.9012599,9.22540016 44.4752599,8.65140016 C45.0492599,8.07740016 45.8492599,7.79040016 46.9152599,7.79040016 C47.7762599,7.79040016 48.3712599,7.91340016 48.9252599,8.07740016 L48.9252599,10.1694002 C48.4332599,10.0044002 48.0022599,9.90240016 47.4692599,9.90240016 C46.5252599,9.90240016 46.0332599,10.4144002 46.0332599,11.5424002 L46.0332599,12.1374002 L48.9042599,12.1374002 L48.9042599,14.1884002 L46.0752599,14.1884002 L46.0752599,22.8824002 L43.5932599,22.8824002 L43.5932599,14.1884002 L38.3642599,14.1884002 L38.3642599,22.8824002 L35.8832599,22.8824002 L35.8832599,14.1884002 L34.5092599,14.1884002 L34.5092599,12.1164002 L35.8832599,12.1164002 Z M68.4240599,22.8822002 L70.9050599,22.8822002 L70.9050599,12.0552002 L68.4240599,12.0552002 L68.4240599,22.8822002 Z M50.8940599,22.8822002 L53.3750599,22.8822002 L53.3750599,12.0552002 L50.8940599,12.0552002 L50.8940599,22.8822002 Z M88.9699599,22.8822002 L86.4889599,22.8822002 L86.4889599,12.0552002 L88.9699599,12.0552002 L88.9699599,13.7162002 C89.6679599,12.7112002 90.6729599,11.8292002 92.3539599,11.8292002 C94.7939599,11.8292002 96.2089599,13.4702002 96.2089599,15.9722002 L96.2089599,22.8822002 L93.7269599,22.8822002 L93.7269599,16.7302002 C93.7269599,15.0492002 92.8869599,14.0852002 91.4099599,14.0852002 C89.9749599,14.0852002 88.9699599,15.0902002 88.9699599,16.7712002 L88.9699599,22.8822002 Z M30.3883599,16.7100002 C30.2243599,15.1110002 29.2813599,13.8600002 27.6403599,13.8600002 C26.1233599,13.8600002 25.0573599,15.0280002 24.8313599,16.7100002 L30.3883599,16.7100002 Z M81.5480599,16.7100002 C81.3840599,15.1110002 80.4410599,13.8600002 78.8000599,13.8600002 C77.2830599,13.8600002 76.2160599,15.0280002 75.9910599,16.7100002 L81.5480599,16.7100002 Z M68.3220599,10.3942002 L70.9880599,10.3942002 L70.9880599,8.03620016 L68.3220599,8.03620016 L68.3220599,10.3942002 Z M50.7910599,10.3942002 L53.4570599,10.3942002 L53.4570599,8.03620016 L50.7910599,8.03620016 L50.7910599,10.3942002 Z" id="path-1"></path>
    </defs>
    <g id="Symbols" stroke="none" stroke-width="1" fill="none" fill-rule="evenodd">
        <g id="logo">
            <mask id="mask-2" fill="white">
                <use xlink:href="#path-1"></use>
            </mask>
            <use id="Page-1" fill="#25598B" xlink:href="#path-1"></use>
        </g>
    </g>
</svg>