<?xml version="1.0" encoding="utf-8"?>
<!-- Generator: Adobe Illustrator 19.2.1, SVG Export Plug-In . SVG Version: 6.00 Build 0)  -->
<svg version="1.1" id="layer" xmlns="http://www.w3.org/2000/svg" xmlns:xlink="http://www.w3.org/1999/xlink" x="0px" y="0px"
	 viewBox="0 0 652 652" style="enable-background:new 0 0 652 652;" xml:space="preserve">
<style type="text/css">
	.st0{fill:#003B70;}
</style>
<path class="st0" d="M51.2,269.4c-6,0-10.8,4.8-10.8,10.8v91.7c0,6,4.8,10.8,10.8,10.8h193.2c6,0,10.8-4.8,10.8-10.8l0,0v-91.8
	c0-6-4.9-10.8-10.8-10.8C244.4,269.4,51.2,269.4,51.2,269.4z M244.4,396.2H51.2c-13.4,0-24.3-10.9-24.3-24.3v-91.7
	c0-13.4,10.9-24.3,24.3-24.3h193.2c13.4,0,24.3,10.9,24.3,24.3v91.7C268.7,385.3,257.8,396.2,244.4,396.2L244.4,396.2z"/>
<path class="st0" d="M234.9,351.2h-30v-60.8c0-2-1.6-3.6-3.6-3.6l0,0h-6.8c-2,0-3.6,1.6-3.7,3.6c0,0,0,0,0,0v71.2
	c0,2,1.6,3.6,3.6,3.6c0,0,0,0,0,0h40.5c2,0,3.6-1.6,3.6-3.6v-6.8C238.6,352.9,236.9,351.2,234.9,351.2
	C234.9,351.2,234.9,351.2,234.9,351.2L234.9,351.2z M177.9,290.4c0-2-1.6-3.6-3.6-3.6c0,0,0,0,0,0h-40.5c-2,0-3.6,1.6-3.6,3.6v71.2
	c0,2,1.6,3.6,3.6,3.6h40.5c2,0,3.6-1.6,3.6-3.6v-6.8c0-2-1.6-3.6-3.6-3.6h-30v-18.2h16.5c2-0.1,3.5-1.7,3.5-3.6v-6.8
	c0-2-1.6-3.6-3.6-3.6h-16.4v-18.2h30c2,0,3.7-1.6,3.7-3.6c0,0,0-0.1,0-0.1C177.9,297.2,177.9,290.4,177.9,290.4z M117.2,339.7
	c-0.2-1.7-0.6-3.4-1.2-5c-2.5-5.7-7.1-10.1-12.9-12.5c-3.6-1.3-7.2-2.3-11-2.9c-2.3-0.5-4.6-0.9-6.9-1.4c-1.9-0.4-3.8-1-5.5-1.9
	c-2.2-1.2-4.5-2.4-5.4-4.9c-0.6-1.7-0.4-3.6,0.5-5.2c1.4-2.1,3.5-3.6,5.8-4.5c5.1-2.3,10.9-2.2,15.9,0.2c0.6,0.3,1.3,0.7,1.9,1.2
	c1.3,1,2.5,2.1,3.5,3.4c0.8,1,1.7,1.8,2.8,2.5c1.3,0.7,2.7,1,4.1,0.9c2.4,0,5.7-0.4,7.1-2.6c0.4-0.6,0.6-1.2,0.7-1.9
	c0-0.9-0.1-1.8-0.4-2.7c-0.4-1.5-1.1-2.9-2-4.2c-1.3-1.8-2.8-3.4-4.4-4.8c-0.4-0.4-0.9-0.6-1.3-1c-7-5-15.6-7.4-24.1-6.5
	c-4.4,0.5-8.7,1.9-12.6,4c-3.2,1.8-6,4.3-8.1,7.2c-2.7,3.7-4.2,8.2-4.1,12.9c0.2,4.6,1.9,9,4.9,12.5c1.5,1.7,3.2,3.2,5.1,4.4
	c5.8,3.3,15.7,5.5,23.7,7.4c2.9,0.7,5.6,1.3,7.9,3.4c0.7,0.8,1.3,1.7,1.6,2.7c1.4,4.3-2,7.9-5.4,9.7c-1.8,0.9-3.6,1.5-5.6,1.8
	c-2.4,0.4-4.9,0.4-7.3-0.1c-1.9-0.3-3.7-0.9-5.4-1.7c-1.7-1.1-3.2-2.6-4.3-4.4c-0.4-0.6-0.8-1.2-1.3-1.7c-1.4-1.1-3.1-1.6-4.8-1.4
	c-1.1,0-2.1,0.1-3.1,0.3c-0.9,0.2-1.8,0.4-2.7,0.8c-0.9,0.4-1.6,1.1-2.1,2c-0.3,0.8-0.5,1.7-0.4,2.6c0,0.2,0,0.5,0.1,0.7
	c0.2,1.3,0.6,2.5,1.3,3.7c1.5,2.6,3.4,4.9,5.7,6.8c0.7,0.6,1.4,1.1,2.2,1.6c1.2,0.9,2.5,1.6,3.9,2.3c4.6,2.1,9.5,3.2,14.5,3.3
	c2.9,0,5.8-0.4,8.6-1.1c5-1.1,9.6-3.5,13.3-7c1.1-1,2-2.1,2.9-3.3C116,350.6,117.5,345.1,117.2,339.7L117.2,339.7z M304.7,293.7
	c-4.6,0.2-9-1.9-11.8-5.5l4.4-3.9c1.9,2.3,4.8,3.6,7.8,3.5c3.6,0,5.3-1,5.3-3.3c0-1.9-1-2.9-6.8-4.1c-5.7-1.3-9.5-3.1-9.5-9.1
	c0-5.5,4.9-8.9,10.8-8.9c4.2-0.1,8.2,1.6,11,4.8l-4.4,4.3c-1.7-2-4.3-3.1-6.9-3.1c-3.2,0-4.3,1.4-4.3,2.7c0,1.9,1.3,2.5,6.1,3.6
	c4.8,1.1,10.1,2.8,10.1,9.4C316.6,289.8,313,293.7,304.7,293.7z M340.2,271.7c-1-2.1-3.2-3.4-5.5-3.3c-4.5,0-7.1,4-7.1,9.6
	s2.6,9.6,7.1,9.6c2.7,0,4.3-1.2,5.9-3.9l5.1,3c-2,4.4-6.4,7.1-11.2,6.8c-7.9,0-13.3-6.1-13.3-15.6c0-9.2,5.5-15.6,13.5-15.6
	c4.7-0.3,9.1,2.4,11.1,6.7L340.2,271.7z M370.4,293.2v-12.7H358v12.7h-6.1v-30.3h6.1v11.6h12.4v-11.6h6.1v30.3H370.4L370.4,293.2z
	 M410,293.2h-5.9l-3.7-15.6c-0.4-1.8-0.9-4.1-1-5.2c-0.2,1.7-0.6,3.5-1,5.2l-3.8,15.6h-5.7l-6.3-30.3h6.3l2.6,14.8
	c0.3,1.4,0.6,3.7,0.7,5c0.2-1.3,0.7-3.5,1-5l3.6-14.8h5.3l3.6,14.8c0.3,1.4,0.8,3.7,1,5c0.1-1.3,0.5-3.6,0.7-5l2.6-14.8h6.2
	L410,293.2z M422.4,293.2v-30.3h21.1v5.9h-15v5.2h8.7v5.9h-8.7v7.3h15.6v5.9L422.4,293.2L422.4,293.2z M451,293.2v-30.3h6.1v30.3
	H451z M478,268.9v24.3h-6v-24.3h-8.7v-6h23.5v6H478L478,268.9z M490.6,293.2v-5.4l13-15.6c1-1.2,2.7-3.2,3.5-3.9
	c-1.2,0-4.4,0.1-6.1,0.1h-9.5v-5.5h22.9v5.4l-12.9,15.5c-1,1.2-2.7,3.2-3.5,3.9c1.2,0,4.4-0.1,6.1-0.1h10.4v5.5H490.6L490.6,293.2z
	 M521.3,293.2v-30.3h21v5.9h-14.9v5.2h8.7v5.9h-8.7v7.3H543v5.9L521.3,293.2L521.3,293.2z M567,293.2l-5.4-11h-6.1v10.9h-6.1v-30.3
	h14.1c5.7,0,10.4,3.2,10.4,9.6c0,4.5-1.9,7.4-5.8,8.9l5.8,11.8H567z M563.4,268.8h-7.9v7.8h7.9c2.9,0,4.3-1.3,4.3-3.9
	S566.1,268.8,563.4,268.8z M294.9,341.2v-30.4h21v5.9h-15v5.2h8.7v6H301v7.3h15.6v5.9L294.9,341.2L294.9,341.2z M342.2,341.2
	l-11.1-16.5c-0.7-1.1-1.7-2.6-2.1-3.4c0,1.1,0.1,4.9,0.1,6.6v13.3h-6v-30.4h5.8l10.7,16c0.7,1.1,1.7,2.6,2.1,3.4
	c0-1.1-0.1-4.9-0.1-6.6v-12.8h6v30.4H342.2L342.2,341.2z M367.1,341.7c-7.9,0-13.3-6.1-13.3-15.6c0-9.2,5.5-15.6,13.5-15.6
	c6.2,0,9.5,2.9,11.4,7.6l-5.7,2.4c-1.1-2.3-2.5-3.9-5.8-3.9c-4.5,0-7.1,4-7.1,9.6s2.6,9.7,7.1,9.7c4.2,0,5.6-2,5.9-4.6h-4.8v-5.7
	h10.9v4C379.2,337.3,374.1,341.7,367.1,341.7L367.1,341.7z M386.1,341.2v-30.4h6.1v30.4H386.1z M419.5,341.2l-11.1-16.5
	c-0.7-1.1-1.7-2.6-2.1-3.4c0,1.1,0.1,4.9,0.1,6.6v13.3h-6v-30.4h5.8l10.7,16c0.7,1.1,1.7,2.6,2.1,3.4c0-1.1-0.1-4.9-0.1-6.6v-12.8h6
	v30.4H419.5L419.5,341.2z M432.7,341.2v-30.4h21v5.9h-14.9v5.2h8.7v6h-8.7v7.3h15.6v5.9L432.7,341.2L432.7,341.2z M460.9,341.2
	v-30.4h21v5.9h-15v5.2h8.7v6h-8.7v7.3h15.6v5.9L460.9,341.2L460.9,341.2z M506.6,341.2l-5.4-10.9h-6v10.9h-6.1v-30.4h14.1
	c5.7,0,10.4,3.2,10.4,9.6c0,4.5-1.9,7.4-5.8,8.9l5.8,11.8L506.6,341.2L506.6,341.2z M503,316.8h-7.8v7.8h7.9c2.9,0,4.3-1.3,4.3-3.9
	C507.4,318,505.7,316.8,503,316.8L503,316.8z M520.4,341.2v-30.4h6.1v30.4H520.4z M553.8,341.2l-11.1-16.5c-0.7-1.1-1.7-2.6-2.1-3.4
	c0,1.1,0.1,4.9,0.1,6.6v13.3h-6v-30.4h5.8l10.7,16c0.7,1.1,1.7,2.6,2.1,3.4c0-1.1-0.1-4.9-0.1-6.6v-12.8h6v30.4H553.8L553.8,341.2z
	 M578.7,341.7c-7.9,0-13.3-6.1-13.3-15.6c0-9.2,5.5-15.6,13.5-15.6c6.2,0,9.5,2.9,11.4,7.6l-5.7,2.4c-1.1-2.3-2.5-3.9-5.8-3.9
	c-4.5,0-7.1,4-7.1,9.6s2.6,9.7,7.1,9.7c4.2,0,5.6-2,5.9-4.6h-4.8v-5.7h11v4C590.9,337.3,585.7,341.7,578.7,341.7z M294.9,389.2
	v-30.3h6.1v24.3h15.2v6L294.9,389.2L294.9,389.2z M341.9,389.2l-2.4-6.8h-11.1l-2.4,6.8h-6.5l11.6-30.3h5.9l11.5,30.3H341.9
	L341.9,389.2z M335.5,371.2c-0.6-1.8-1.2-3.6-1.5-4.7c-0.3,1.1-0.9,2.9-1.5,4.7l-2,5.5h6.9L335.5,371.2z M368,389.2h-13.8v-30.3
	h13.9c5.9,0,9.6,2.9,9.6,8c0.1,2.4-1.2,4.6-3.2,5.9c2.7,1.1,4.4,3.7,4.3,6.6C378.8,385.8,374.5,389.2,368,389.2L368,389.2z
	 M367.9,364.4h-7.7v5.7h8c2.5,0,3.4-1.2,3.4-2.9C371.6,365.4,370.5,364.4,367.9,364.4L367.9,364.4z M368.2,375.6h-8.1v7.8h8.1
	c2.9,0,4.3-1.6,4.3-3.9C372.6,376.9,371.2,375.6,368.2,375.6L368.2,375.6z M396.3,389.7c-7.9,0-13.3-5.8-13.3-15.6
	s5.5-15.7,13.4-15.7c7.9,0,13.3,5.8,13.3,15.6S404.2,389.7,396.3,389.7z M396.3,364.4c-4.3,0-7.1,3.4-7.1,9.6c0,6.2,2.9,9.7,7.1,9.7
	c4.2,0,7.1-3.4,7.1-9.6S400.5,364.4,396.3,364.4L396.3,364.4z M433.4,389.2l-5.4-10.9h-6.1v10.9h-6.1v-30.3h14.1
	c5.7,0,10.4,3.2,10.4,9.6c0,4.5-1.9,7.4-5.8,8.9l5.8,11.8L433.4,389.2L433.4,389.2z M429.8,364.7h-7.9v7.8h7.9
	c2.9,0,4.3-1.3,4.3-3.9S432.5,364.7,429.8,364.7z M466.3,389.2l-2.4-6.8h-11.1l-2.4,6.8h-6.5l11.6-30.3h5.9l11.5,30.3H466.3
	L466.3,389.2z M459.9,371.2c-0.6-1.8-1.2-3.6-1.5-4.7c-0.3,1.1-0.9,2.9-1.5,4.7l-1.9,5.5h6.9L459.9,371.2z M487.3,364.8v24.3h-6.1
	v-24.3h-8.7v-6H496v6H487.3z M512,389.7c-7.9,0-13.3-5.8-13.3-15.6s5.5-15.7,13.4-15.7c7.9,0,13.3,5.8,13.3,15.6
	S519.9,389.7,512,389.7z M512,364.4c-4.3,0-7.1,3.4-7.1,9.6c0,6.2,2.9,9.7,7.1,9.7c4.2,0,7.1-3.4,7.1-9.6S516.2,364.4,512,364.4
	L512,364.4z M549.1,389.2l-5.4-10.9h-6.1v10.9h-6.1v-30.3h14.1c5.7,0,10.4,3.2,10.4,9.6c0,4.5-1.9,7.4-5.8,8.9l5.8,11.8L549.1,389.2
	L549.1,389.2z M545.5,364.7h-7.9v7.8h7.9c2.9,0,4.3-1.3,4.3-3.9S548.2,364.7,545.5,364.7L545.5,364.7z M562.9,389.2v-30.3h6.1v30.3
	H562.9z M577.2,389.2v-30.3h21v5.9h-15v5.2h8.7v5.9h-8.7v7.3h15.6v5.9L577.2,389.2L577.2,389.2z M615,389.7c-4.6,0.2-9-1.9-11.8-5.5
	l4.4-3.9c1.9,2.3,4.8,3.6,7.8,3.5c3.6,0,5.3-1,5.3-3.3c0-1.9-1-2.9-6.8-4.1c-5.7-1.3-9.5-3.1-9.5-9.1c0-5.5,4.9-8.9,10.8-8.9
	c4.2-0.1,8.2,1.6,11,4.8l-4.4,4.3c-1.7-2-4.3-3.1-6.9-3.1c-3.2,0-4.3,1.4-4.3,2.7c0,1.9,1.3,2.5,6.1,3.6c4.8,1.1,10.1,2.8,10.1,9.4
	C626.9,385.8,623.3,389.7,615,389.7L615,389.7z"/>
</svg>
